<svg xmlns="http://www.w3.org/2000/svg"  viewBox="0 0 100 100" width="100px" height="100px" baseProfile="basic"><path d="M89.75,80.411L69.948,62.948L69.94,62.94l0,0l-6.243-5.573C67.029,52.76,69,47.108,69,41	c0-15.439-12.561-28-28-28S13,25.561,13,41s12.561,28,28,28c6.108,0,11.76-1.971,16.368-5.303l5.573,6.243L62.94,69.94l0.01,0.01	l17.454,19.793c1.202,1.371,2.937,2.192,4.759,2.252C85.236,91.999,85.308,92,85.38,92c1.747,0,3.443-0.699,4.682-1.938	c1.29-1.29,1.995-3.075,1.935-4.897C91.937,83.342,91.115,81.607,89.75,80.411z" opacity=".35"/><path fill="#bc7313" d="M59.491,54.632l26.594,23.525c2.443,2.141,2.567,5.9,0.27,8.197l0,0	c-2.297,2.297-6.056,2.173-8.197-0.27L54.632,59.491"/><circle cx="38" cy="38" r="27" fill="#55bfd8"/><linearGradient id="E5i0cWQvPU_qSM5IDtn1Ba" x1="12.718" x2="90.203" y1="12.718" y2="90.203" gradientUnits="userSpaceOnUse"><stop offset=".004" stop-color="#ffe8c7"/><stop offset=".173" stop-color="#fde1b9"/><stop offset=".495" stop-color="#f6ce93"/><stop offset=".933" stop-color="#edb057"/><stop offset="1" stop-color="#ebab4d"/></linearGradient><path fill="url(#E5i0cWQvPU_qSM5IDtn1Ba)" d="M86.75,77.411L66.948,59.948L66.94,59.94l0,0l-6.243-5.573C64.029,49.76,66,44.108,66,38	c0-15.439-12.561-28-28-28S10,22.561,10,38s12.561,28,28,28c6.108,0,11.76-1.971,16.368-5.303l5.573,6.243L59.94,66.94l0.01,0.01	l17.454,19.793c1.202,1.371,2.937,2.192,4.759,2.252C82.236,88.999,82.308,89,82.38,89c1.747,0,3.443-0.699,4.682-1.938	c1.29-1.29,1.995-3.075,1.935-4.897C88.937,80.342,88.115,78.607,86.75,77.411z M12,38c0-14.336,11.663-26,26-26s26,11.664,26,26	S52.337,64,38,64S12,52.336,12,38z M85.647,85.647c-0.912,0.913-2.094,1.408-3.417,1.35c-1.291-0.042-2.47-0.601-3.327-1.579	L62.692,67.017l4.326-4.326l18.407,16.218c0.972,0.851,1.53,2.031,1.572,3.321C87.04,83.521,86.561,84.734,85.647,85.647z"/></svg>